<svg id="svg" version="1.1" xmlns="http://www.w3.org/2000/svg" xmlns:xlink="http://www.w3.org/1999/xlink" width="400" height="400" viewBox="0, 0, 400,400"><g id="svgg"><path id="path0" d="M0.800 122.200 L 0.800 128.800 9.953 128.800 L 19.107 128.800 19.348 129.700 C 19.481 130.195,19.592 140.886,19.595 153.457 C 19.599 173.928,19.666 176.340,20.233 176.557 C 21.170 176.917,35.318 176.840,35.897 176.472 C 36.281 176.228,36.417 170.831,36.497 152.578 L 36.600 129.000 45.800 128.800 L 55.000 128.600 55.110 122.100 L 55.220 115.600 28.010 115.600 L 0.800 115.600 0.800 122.200 M69.787 116.092 C 69.680 116.371,69.640 130.100,69.697 146.600 L 69.800 176.600 77.400 176.714 C 81.580 176.776,85.405 176.728,85.900 176.606 L 86.800 176.385 86.800 164.592 L 86.800 152.800 98.800 152.800 L 110.800 152.800 110.800 164.592 L 110.800 176.385 111.700 176.606 C 112.195 176.728,116.020 176.776,120.200 176.714 L 127.800 176.600 127.910 147.000 C 127.971 130.720,127.921 116.991,127.801 116.492 L 127.581 115.584 119.290 115.692 L 111.000 115.800 110.894 126.980 C 110.814 135.313,110.661 138.241,110.294 138.474 C 110.022 138.647,104.850 138.788,98.800 138.788 C 92.750 138.788,87.578 138.647,87.306 138.474 C 86.939 138.241,86.786 135.313,86.706 126.980 L 86.600 115.800 78.291 115.692 C 71.861 115.608,69.937 115.699,69.787 116.092 M148.187 116.092 C 148.080 116.371,148.040 130.100,148.097 146.600 L 148.200 176.600 155.800 176.714 C 159.980 176.776,163.806 176.727,164.303 176.605 L 165.205 176.383 165.103 146.092 L 165.000 115.800 156.691 115.692 C 150.261 115.608,148.337 115.699,148.187 116.092 M185.698 146.100 L 185.800 176.600 193.000 176.714 C 196.960 176.776,200.605 176.728,201.100 176.606 L 202.000 176.385 202.005 161.292 C 202.011 147.022,202.128 144.400,202.761 144.400 C 202.909 144.400,204.550 146.245,206.409 148.500 C 218.237 162.849,229.418 176.243,229.778 176.494 C 230.285 176.847,242.065 176.903,242.967 176.557 C 243.537 176.339,243.600 173.270,243.600 145.957 L 243.600 115.600 235.400 115.600 L 227.200 115.600 227.200 131.600 C 227.200 149.644,227.303 149.145,224.322 145.487 C 223.375 144.325,217.409 137.125,211.065 129.487 L 199.529 115.600 192.562 115.600 L 185.595 115.600 185.698 146.100 M264.097 146.065 L 264.200 176.600 276.800 176.720 C 297.120 176.914,303.892 176.087,310.968 172.547 C 333.631 161.210,331.744 126.704,307.997 118.188 C 301.663 115.917,301.451 115.897,282.097 115.708 L 263.995 115.530 264.097 146.065 M344.187 116.092 C 344.080 116.371,344.040 130.100,344.097 146.600 L 344.200 176.600 351.800 176.714 C 355.980 176.776,359.806 176.727,360.303 176.605 L 361.205 176.383 361.103 146.092 L 361.000 115.800 352.691 115.692 C 346.261 115.608,344.337 115.699,344.187 116.092 M296.193 129.386 C 305.415 131.151,309.832 136.970,309.533 146.959 C 309.185 158.594,302.694 163.375,287.600 163.114 L 281.000 163.000 280.896 146.446 C 280.820 134.559,280.919 129.739,281.244 129.346 C 281.883 128.577,292.107 128.604,296.193 129.386 M224.977 225.715 C 224.869 225.998,224.829 229.283,224.890 233.015 L 225.000 239.800 229.500 239.800 C 235.130 239.800,235.565 239.080,230.104 238.800 L 226.200 238.600 226.090 231.900 C 225.991 225.808,225.656 223.947,224.977 225.715 M245.887 228.300 C 240.045 240.885,240.561 239.600,241.346 239.600 C 241.646 239.600,242.193 238.809,242.563 237.842 C 243.348 235.786,243.773 235.613,248.067 235.605 C 251.963 235.599,252.238 235.719,253.178 237.843 C 253.605 238.809,254.216 239.600,254.535 239.600 C 254.947 239.600,254.331 237.883,252.419 233.698 C 247.783 223.554,248.005 223.737,245.887 228.300 M262.382 225.500 C 262.290 227.048,267.095 239.612,267.742 239.513 C 268.412 239.411,271.111 232.774,271.889 229.312 C 272.596 226.166,273.145 226.830,275.438 233.600 C 278.097 241.454,278.275 241.441,281.064 233.200 C 283.646 225.572,283.777 225.074,283.151 225.283 C 282.885 225.372,281.840 227.864,280.829 230.822 C 278.987 236.211,278.223 237.964,277.873 237.597 C 277.770 237.489,276.937 235.150,276.022 232.400 C 273.769 225.629,273.586 225.200,272.951 225.200 C 272.648 225.200,272.400 225.245,272.400 225.300 C 272.400 225.624,268.708 235.957,268.327 236.700 C 267.612 238.092,267.462 237.882,266.034 233.500 C 263.645 226.170,262.493 223.645,262.382 225.500 M293.067 225.467 C 292.451 226.082,292.770 239.600,293.400 239.600 C 293.861 239.600,294.000 239.089,294.000 237.400 L 294.000 235.200 296.934 235.200 L 299.867 235.200 301.382 237.400 C 302.216 238.610,303.162 239.600,303.486 239.600 C 303.892 239.600,303.627 238.976,302.638 237.599 C 300.878 235.150,300.879 235.201,302.600 233.480 C 305.316 230.764,304.048 226.190,300.374 225.455 C 298.693 225.119,293.406 225.127,293.067 225.467 M313.777 225.715 C 313.669 225.998,313.629 229.283,313.690 233.015 L 313.800 239.800 318.700 239.912 C 322.834 240.007,323.600 239.931,323.600 239.426 C 323.600 238.938,322.801 238.806,319.300 238.714 L 315.000 238.600 315.000 235.800 L 315.000 233.000 318.700 232.885 C 320.735 232.822,322.400 232.603,322.400 232.400 C 322.400 232.197,320.735 231.978,318.700 231.915 L 315.000 231.800 314.879 229.236 C 314.729 226.056,314.790 226.014,319.500 226.006 C 321.696 226.002,323.200 225.837,323.200 225.600 C 323.200 224.963,314.023 225.075,313.777 225.715 M333.600 232.400 C 333.600 236.933,333.748 239.600,334.000 239.600 C 334.248 239.600,334.400 237.467,334.400 234.000 C 334.400 226.525,334.290 226.506,340.960 235.100 C 345.685 241.188,345.643 241.212,345.509 232.500 C 345.377 223.922,344.656 222.716,344.488 230.792 C 344.426 233.758,344.228 236.332,344.047 236.513 C 343.866 236.694,341.618 234.222,339.051 231.021 C 336.484 227.819,334.207 225.200,333.992 225.200 C 333.751 225.200,333.600 227.969,333.600 232.400 M359.600 225.627 C 354.044 227.954,353.613 236.417,358.922 238.936 C 361.891 240.345,365.472 240.088,367.042 238.354 C 367.889 237.417,367.114 237.335,365.600 238.200 C 361.906 240.312,356.603 237.470,356.112 233.116 C 355.541 228.050,361.863 224.122,366.063 226.932 C 366.724 227.375,367.220 227.491,367.376 227.239 C 368.188 225.925,361.967 224.635,359.600 225.627 M377.200 232.392 C 377.200 240.817,376.660 240.104,382.902 239.917 C 388.272 239.756,388.129 239.030,382.700 238.886 L 378.400 238.773 378.400 235.786 L 378.400 232.800 382.000 232.800 C 384.133 232.800,385.600 232.637,385.600 232.400 C 385.600 232.163,384.127 232.000,381.982 232.000 L 378.365 232.000 378.482 229.100 L 378.600 226.200 382.700 226.086 C 388.493 225.925,387.920 225.200,382.000 225.200 L 377.200 225.200 377.200 232.392 M301.533 227.090 C 305.375 229.958,302.574 234.182,297.000 233.928 L 294.200 233.800 294.083 230.234 C 293.999 227.661,294.111 226.569,294.483 226.313 C 295.413 225.675,300.370 226.221,301.533 227.090 M249.810 230.250 C 251.877 234.786,251.871 234.800,247.800 234.800 C 243.837 234.800,243.938 235.020,245.867 230.578 C 247.668 226.432,248.055 226.399,249.810 230.250 M0.000 237.200 L 0.000 241.601 107.900 241.501 L 215.800 241.400 215.800 237.200 L 215.800 233.000 107.900 232.899 L 0.000 232.799 0.000 237.200 " stroke="none" fill="#f8f8f8" fill-rule="evenodd"></path><path id="path1" d="M0.000 57.600 L 0.000 115.200 27.757 115.200 C 52.699 115.200,55.539 115.264,55.757 115.833 C 56.242 117.095,56.023 128.216,55.500 128.920 C 55.062 129.509,53.890 129.605,46.000 129.696 L 37.000 129.800 36.897 153.178 C 36.817 171.271,36.681 176.628,36.297 176.872 C 35.449 177.410,19.831 177.271,19.280 176.720 C 18.918 176.358,18.800 170.528,18.800 152.934 L 18.800 129.628 9.400 129.514 L -0.001 129.400 -0.000 180.700 L 0.000 232.000 107.957 232.000 C 206.031 232.000,215.937 232.058,216.157 232.633 C 216.473 233.456,216.473 240.944,216.157 241.767 C 215.937 242.342,206.031 242.400,107.957 242.400 L 0.000 242.400 0.000 321.200 L 0.000 400.000 200.000 400.000 L 400.000 400.000 400.000 200.000 L 400.000 0.000 200.000 0.000 L 0.000 0.000 0.000 57.600 M87.200 126.600 L 87.200 138.000 98.800 138.000 L 110.400 138.000 110.400 126.592 L 110.400 115.185 119.300 115.292 L 128.200 115.400 128.303 145.756 C 128.377 167.849,128.282 176.260,127.954 176.656 C 127.482 177.225,113.263 177.474,111.300 176.948 L 110.400 176.707 110.400 164.953 L 110.400 153.200 98.800 153.200 L 87.200 153.200 87.200 164.953 L 87.200 176.707 86.300 176.948 C 85.121 177.264,70.653 177.272,69.833 176.957 C 69.172 176.704,68.812 116.122,69.467 115.467 C 69.613 115.320,73.663 115.200,78.467 115.200 L 87.200 115.200 87.200 126.600 M165.600 145.953 L 165.600 176.707 164.700 176.948 C 163.521 177.264,149.053 177.272,148.233 176.957 C 147.572 176.704,147.212 116.122,147.867 115.467 C 148.013 115.320,152.063 115.200,156.867 115.200 L 165.600 115.200 165.600 145.953 M205.717 122.100 C 208.866 125.895,214.649 132.870,218.569 137.600 C 222.489 142.330,225.855 146.260,226.048 146.333 C 226.247 146.409,226.400 139.655,226.400 130.833 L 226.400 115.200 235.200 115.200 L 244.000 115.200 244.000 145.957 C 244.000 173.635,243.937 176.739,243.367 176.957 C 242.507 177.287,230.364 177.212,229.547 176.872 C 229.188 176.722,227.553 174.980,225.915 173.000 C 224.276 171.020,218.891 164.524,213.947 158.564 C 209.004 152.605,204.475 147.115,203.884 146.364 L 202.809 145.000 202.804 160.620 C 202.801 172.230,202.677 176.363,202.320 176.720 C 201.702 177.338,186.715 177.397,185.574 176.786 C 184.789 176.366,184.292 116.242,185.067 115.467 C 185.213 115.320,188.631 115.200,192.663 115.200 L 199.992 115.200 205.717 122.100 M301.400 115.788 C 313.625 118.355,322.817 125.588,325.643 134.867 C 327.057 139.510,327.254 140.873,327.259 146.071 C 327.275 161.898,318.642 172.304,302.200 176.276 C 299.000 177.050,265.377 177.537,264.055 176.829 L 263.200 176.372 263.200 146.053 C 263.200 129.377,263.320 115.613,263.467 115.467 C 264.052 114.881,298.469 115.173,301.400 115.788 M361.600 145.953 L 361.600 176.707 360.700 176.948 C 359.521 177.264,345.053 177.272,344.233 176.957 C 343.572 176.704,343.212 116.122,343.867 115.467 C 344.013 115.320,348.063 115.200,352.867 115.200 L 361.600 115.200 361.600 145.953 M281.867 129.867 C 281.720 130.013,281.600 137.393,281.600 146.267 L 281.600 162.400 288.700 162.395 C 302.421 162.386,308.269 158.217,309.043 147.893 C 309.732 138.706,305.832 132.677,297.627 130.244 C 295.404 129.585,282.458 129.275,281.867 129.867 M366.600 225.567 C 369.470 227.177,368.133 228.545,365.031 227.173 C 360.925 225.356,356.800 228.097,356.800 232.642 C 356.800 237.103,361.644 239.775,365.650 237.524 C 368.085 236.155,369.016 237.854,366.672 239.390 C 363.086 241.739,356.982 239.847,355.152 235.817 C 351.980 228.835,359.857 221.783,366.600 225.567 M226.490 231.500 L 226.600 238.200 230.596 238.316 C 237.530 238.516,236.771 240.400,229.756 240.400 C 223.885 240.400,224.400 241.174,224.400 232.357 L 224.400 224.800 225.390 224.800 L 226.381 224.800 226.490 231.500 M249.679 226.400 C 251.030 229.057,255.600 239.229,255.600 239.580 C 255.600 241.110,253.512 240.023,252.611 238.024 L 251.879 236.400 247.934 236.400 L 243.990 236.400 243.115 238.200 C 242.388 239.697,242.052 240.000,241.120 240.000 C 239.686 240.000,239.346 241.109,243.694 231.600 C 244.147 230.610,245.029 228.663,245.654 227.273 C 247.032 224.209,248.412 223.910,249.679 226.400 M265.676 230.600 C 266.717 233.680,267.576 236.275,267.585 236.367 C 267.635 236.916,268.193 235.582,269.760 231.169 C 270.730 228.436,271.654 225.875,271.813 225.478 C 272.726 223.200,274.056 224.797,275.997 230.501 C 277.027 233.527,277.970 236.104,278.094 236.227 C 278.314 236.448,278.536 235.864,280.986 228.600 C 281.992 225.618,282.355 224.978,283.100 224.872 C 284.440 224.682,284.289 225.603,281.783 232.924 C 278.628 242.141,277.801 242.565,275.638 236.070 C 272.739 227.368,273.115 227.499,270.817 234.400 C 268.052 242.700,267.352 242.520,264.036 232.664 C 261.205 224.248,261.285 224.710,262.691 224.873 C 263.713 224.992,263.900 225.350,265.676 230.600 M302.324 225.610 C 305.412 227.493,305.555 232.109,302.592 234.267 L 301.563 235.017 303.222 237.335 C 304.950 239.747,304.985 239.869,304.000 240.009 C 302.750 240.187,302.407 239.940,300.924 237.792 L 299.400 235.585 297.000 235.692 L 294.600 235.800 294.474 237.792 C 294.347 239.817,293.902 240.491,292.936 240.120 C 292.514 239.958,292.400 238.307,292.400 232.357 L 292.400 224.800 296.700 224.801 C 300.307 224.803,301.213 224.933,302.324 225.610 M324.000 225.553 C 324.000 226.546,322.964 226.788,318.679 226.795 L 315.158 226.800 315.279 228.900 L 315.400 231.000 319.069 231.200 C 323.003 231.414,323.613 231.654,322.944 232.719 C 322.612 233.249,321.727 233.444,318.958 233.600 L 315.400 233.800 315.400 236.000 L 315.400 238.200 319.718 238.314 C 323.197 238.405,324.082 238.549,324.276 239.054 C 324.682 240.111,323.580 240.388,318.933 240.394 C 312.627 240.403,313.200 241.206,313.200 232.357 L 313.200 224.800 318.600 224.800 C 323.622 224.800,324.000 224.853,324.000 225.553 M339.200 230.210 C 341.510 233.168,343.535 235.591,343.700 235.594 C 343.865 235.597,344.000 233.170,344.000 230.200 L 344.000 224.800 344.957 224.800 C 346.314 224.800,346.400 225.276,346.400 232.819 C 346.400 242.472,346.031 242.573,339.805 234.617 C 337.646 231.858,335.726 229.600,335.540 229.600 C 335.353 229.600,335.200 231.940,335.200 234.800 L 335.200 240.000 334.000 240.000 L 332.800 240.000 332.800 232.667 C 332.800 228.633,332.920 225.213,333.067 225.067 C 334.030 224.104,335.192 225.078,339.200 230.210 M387.200 225.553 C 387.200 226.535,386.163 226.788,382.100 226.795 L 378.800 226.800 378.800 228.985 L 378.800 231.170 382.495 231.285 C 385.744 231.386,386.208 231.491,386.335 232.152 C 386.554 233.299,385.703 233.587,382.080 233.594 L 378.760 233.600 378.880 235.900 L 379.000 238.200 383.396 238.400 C 387.845 238.602,389.674 239.459,387.119 240.143 C 385.400 240.603,377.389 240.429,376.880 239.920 C 376.373 239.413,376.181 227.458,376.652 225.700 C 376.997 224.412,387.200 224.270,387.200 225.553 M294.483 230.057 L 294.600 233.400 297.468 233.400 C 304.406 233.400,304.553 227.176,297.622 226.862 L 294.366 226.714 294.483 230.057 M246.619 230.270 C 244.698 234.466,244.677 234.400,247.957 234.400 C 249.520 234.400,250.800 234.289,250.800 234.154 C 250.800 233.738,248.046 228.000,247.846 228.000 C 247.743 228.000,247.191 229.022,246.619 230.270 " stroke="none" fill="#1c2424" fill-rule="evenodd"></path><path id="path2" d="M55.362 122.200 C 55.362 125.720,55.424 127.106,55.498 125.281 C 55.572 123.456,55.572 120.576,55.497 118.881 C 55.422 117.186,55.361 118.680,55.362 122.200 " stroke="none" fill="#848c8c" fill-rule="evenodd"></path><path id="path3" d="M0.500 115.465 C 0.129 115.615,0.000 117.353,-0.000 122.226 C -0.000 130.102,-1.284 129.269,10.600 129.105 L 19.400 128.984 10.100 128.892 L 0.800 128.800 0.800 122.203 L 0.800 115.606 28.100 115.500 L 55.400 115.394 28.200 115.329 C 13.240 115.293,0.775 115.354,0.500 115.465 M69.600 115.500 C 69.600 115.665,73.425 115.800,78.100 115.800 L 86.600 115.800 86.809 127.200 L 87.019 138.600 87.109 127.533 C 87.159 121.446,87.091 116.181,86.957 115.833 C 86.698 115.156,69.600 114.829,69.600 115.500 M110.643 115.833 C 110.509 116.181,110.441 121.446,110.491 127.533 L 110.581 138.600 110.791 127.200 L 111.000 115.800 119.171 115.691 C 125.441 115.608,127.417 115.701,127.665 116.091 C 127.900 116.461,127.989 116.409,127.994 115.900 C 128.003 114.882,111.033 114.816,110.643 115.833 M148.000 115.500 C 148.000 115.665,151.825 115.800,156.500 115.800 L 165.000 115.800 165.103 145.975 C 165.184 169.835,165.100 176.224,164.703 176.505 C 164.328 176.770,164.353 176.819,164.800 176.697 C 165.405 176.532,165.982 118.493,165.403 116.100 C 165.182 115.189,148.000 114.597,148.000 115.500 M192.400 115.484 L 199.400 115.598 201.352 117.699 L 203.304 119.800 201.501 117.600 L 199.697 115.400 192.549 115.385 L 185.400 115.370 192.400 115.484 M227.075 115.459 C 226.924 115.610,226.800 122.713,226.800 131.243 C 226.800 140.147,226.645 146.849,226.435 146.978 C 226.235 147.102,225.335 146.279,224.435 145.149 C 223.536 144.020,222.800 143.229,222.800 143.392 C 222.800 143.990,226.092 147.600,226.637 147.600 C 227.112 147.600,227.200 145.085,227.200 131.600 L 227.200 115.600 235.400 115.600 L 243.600 115.600 243.600 145.967 C 243.600 166.306,243.465 176.400,243.190 176.537 C 242.965 176.649,243.010 176.694,243.290 176.637 C 243.698 176.554,243.800 170.419,243.800 145.967 L 243.800 115.400 235.575 115.292 C 231.051 115.233,227.226 115.308,227.075 115.459 M265.800 115.466 C 270.166 115.724,299.684 115.783,298.000 115.530 C 297.010 115.381,288.910 115.279,280.000 115.304 C 271.090 115.328,264.700 115.401,265.800 115.466 M344.000 115.500 C 344.000 115.665,347.825 115.800,352.500 115.800 L 361.000 115.800 361.103 145.975 C 361.184 169.835,361.100 176.224,360.703 176.505 C 360.328 176.770,360.353 176.819,360.800 176.697 C 361.405 176.532,361.982 118.493,361.403 116.100 C 361.182 115.189,344.000 114.597,344.000 115.500 M185.293 146.076 C 185.242 162.728,185.335 176.436,185.500 176.538 C 185.772 176.707,185.769 154.709,185.493 126.600 C 185.434 120.660,185.345 129.424,185.293 146.076 M263.693 146.076 C 263.642 162.728,263.735 176.436,263.900 176.538 C 264.172 176.707,264.169 154.709,263.893 126.600 C 263.834 120.660,263.745 129.424,263.693 146.076 M301.600 116.400 C 302.968 116.838,304.019 116.838,303.000 116.400 C 302.560 116.211,301.840 116.062,301.400 116.068 C 300.757 116.077,300.796 116.143,301.600 116.400 M204.799 121.999 C 207.139 124.794,207.728 125.017,205.576 122.293 C 204.599 121.056,203.648 120.035,203.463 120.022 C 203.277 120.010,203.879 120.899,204.799 121.999 M312.943 120.492 C 313.351 120.771,314.466 121.585,315.419 122.300 C 316.372 123.015,317.279 123.600,317.434 123.600 C 317.855 123.600,314.353 120.999,313.200 120.455 C 312.363 120.060,312.321 120.066,312.943 120.492 M208.736 126.717 C 209.691 127.861,210.681 128.925,210.936 129.080 C 211.191 129.236,210.619 128.427,209.664 127.283 C 208.709 126.139,207.719 125.075,207.464 124.920 C 207.209 124.764,207.781 125.573,208.736 126.717 M45.800 128.789 L 36.600 129.000 36.497 152.578 C 36.417 170.807,36.281 176.237,35.897 176.509 C 35.532 176.768,35.559 176.817,36.000 176.697 C 36.523 176.554,36.613 173.506,36.703 152.867 L 36.806 129.200 45.780 129.200 C 51.330 129.200,54.847 129.047,55.000 128.800 C 55.136 128.580,55.192 128.440,55.124 128.489 C 55.056 128.537,50.860 128.672,45.800 128.789 M281.244 129.346 C 280.919 129.739,280.820 134.559,280.896 146.446 L 281.000 163.000 287.625 163.109 C 291.269 163.169,294.922 163.079,295.743 162.909 C 296.638 162.724,294.069 162.600,289.318 162.600 L 281.400 162.600 281.400 146.000 L 281.400 129.400 289.000 129.408 C 293.223 129.412,295.889 129.289,295.000 129.131 C 291.940 128.586,281.743 128.746,281.244 129.346 M213.574 132.536 C 214.985 134.243,216.332 135.758,216.567 135.903 C 216.801 136.048,215.838 134.770,214.426 133.064 C 213.015 131.357,211.668 129.842,211.433 129.697 C 211.199 129.552,212.162 130.830,213.574 132.536 M19.297 153.300 C 19.206 175.453,19.240 176.800,19.900 176.794 C 20.396 176.790,20.455 176.696,20.103 176.472 C 19.719 176.228,19.582 170.908,19.500 152.978 L 19.393 129.800 19.297 153.300 M302.400 131.869 C 303.695 132.781,306.432 135.521,307.325 136.800 C 308.007 137.776,308.012 137.777,307.567 136.842 C 306.878 135.398,304.242 132.692,302.735 131.883 C 301.512 131.225,301.484 131.224,302.400 131.869 M218.549 138.516 C 219.620 139.772,220.582 140.800,220.686 140.800 C 220.954 140.800,217.623 136.861,217.064 136.517 C 216.809 136.361,217.477 137.260,218.549 138.516 M325.656 136.800 C 325.656 137.130,325.811 137.760,326.000 138.200 C 326.217 138.704,326.344 138.778,326.344 138.400 C 326.344 138.070,326.189 137.440,326.000 137.000 C 325.783 136.496,325.656 136.422,325.656 136.800 M93.100 138.699 C 96.235 138.767,101.365 138.767,104.500 138.699 C 107.635 138.632,105.070 138.576,98.800 138.576 C 92.530 138.576,89.965 138.632,93.100 138.699 M326.600 146.260 C 326.600 149.725,326.714 152.029,326.853 151.380 C 327.186 149.822,327.192 142.053,326.860 140.880 C 326.717 140.373,326.600 142.795,326.600 146.260 M308.868 140.800 C 308.888 141.839,309.518 143.546,309.532 142.600 C 309.538 142.160,309.389 141.440,309.200 141.000 C 308.989 140.510,308.861 140.432,308.868 140.800 M202.000 160.967 C 202.000 172.886,201.888 176.379,201.500 176.535 C 201.201 176.656,201.282 176.750,201.700 176.768 C 202.355 176.798,202.400 175.803,202.400 161.200 C 202.400 152.620,202.310 145.600,202.200 145.600 C 202.090 145.600,202.000 152.515,202.000 160.967 M205.681 148.178 C 206.626 149.375,207.549 150.365,207.731 150.378 C 207.913 150.390,207.216 149.410,206.182 148.200 C 203.765 145.371,203.455 145.357,205.681 148.178 M309.050 150.450 C 308.717 152.117,309.040 152.440,309.400 150.800 C 309.552 150.109,309.593 149.459,309.491 149.358 C 309.389 149.256,309.191 149.747,309.050 150.450 M86.894 164.467 C 86.822 173.514,86.681 176.381,86.300 176.535 C 85.908 176.693,85.911 176.744,86.313 176.768 C 87.175 176.822,87.216 176.166,87.100 164.195 L 86.987 152.600 86.894 164.467 M110.591 164.567 C 110.599 174.859,110.684 176.557,111.200 176.697 C 111.638 176.817,111.667 176.766,111.306 176.511 C 110.938 176.250,110.783 173.160,110.697 164.380 L 110.581 152.600 110.591 164.567 M210.434 153.847 C 210.965 154.533,211.480 155.023,211.579 154.935 C 211.677 154.847,211.243 154.286,210.613 153.688 L 209.469 152.600 210.434 153.847 M326.046 153.667 C 326.021 154.034,325.896 154.664,325.770 155.067 C 325.552 155.762,325.563 155.763,325.997 155.087 C 326.248 154.696,326.373 154.066,326.273 153.687 C 326.111 153.068,326.088 153.066,326.046 153.667 M304.985 158.069 C 303.893 159.207,303.545 159.706,304.211 159.179 C 305.352 158.276,307.431 156.000,307.115 156.000 C 307.035 156.000,306.077 156.931,304.985 158.069 M215.199 159.599 C 216.119 160.698,217.081 161.726,217.336 161.883 C 217.591 162.039,216.923 161.140,215.851 159.884 C 214.780 158.628,213.818 157.600,213.714 157.600 C 213.610 157.600,214.279 158.499,215.199 159.599 M321.874 163.233 C 321.255 164.095,320.841 164.800,320.954 164.800 C 321.265 164.800,323.335 162.001,323.156 161.823 C 323.070 161.737,322.493 162.372,321.874 163.233 M220.949 166.516 C 222.020 167.772,222.982 168.800,223.086 168.800 C 223.354 168.800,220.023 164.861,219.464 164.517 C 219.209 164.361,219.877 165.260,220.949 166.516 M318.800 167.000 C 317.828 167.990,317.123 168.800,317.233 168.800 C 317.343 168.800,318.228 167.990,319.200 167.000 C 320.172 166.010,320.877 165.200,320.767 165.200 C 320.657 165.200,319.772 166.010,318.800 167.000 M224.824 171.307 C 225.801 172.544,226.752 173.565,226.937 173.578 C 227.308 173.602,224.193 169.766,223.488 169.331 C 223.246 169.181,223.847 170.070,224.824 171.307 M312.300 171.829 C 310.805 172.640,310.896 172.978,312.400 172.200 C 313.060 171.859,313.600 171.494,313.600 171.390 C 313.600 171.132,313.557 171.147,312.300 171.829 M228.283 175.400 C 228.897 176.170,229.539 176.800,229.710 176.800 C 229.880 176.800,229.446 176.170,228.745 175.400 C 227.105 173.598,226.845 173.598,228.283 175.400 M302.400 175.600 C 301.576 175.864,301.541 175.926,302.200 175.954 C 302.640 175.973,303.270 175.813,303.600 175.600 C 304.301 175.147,303.814 175.147,302.400 175.600 M295.600 176.400 L 292.600 176.656 295.400 176.681 C 296.940 176.694,298.740 176.568,299.400 176.400 C 300.893 176.020,300.053 176.020,295.600 176.400 M224.800 225.158 C 224.800 225.387,225.066 225.473,225.390 225.348 C 225.893 225.155,225.996 226.114,226.090 231.861 L 226.200 238.600 230.200 238.800 C 233.232 238.952,234.173 239.128,234.090 239.530 C 234.030 239.821,234.173 239.940,234.410 239.794 C 235.672 239.014,233.801 238.400,230.161 238.400 L 226.419 238.400 226.310 231.705 C 226.211 225.698,226.128 224.996,225.500 224.876 C 225.115 224.802,224.800 224.929,224.800 225.158 M246.782 225.634 C 246.536 226.093,246.423 226.557,246.531 226.664 C 246.639 226.772,246.846 226.487,246.990 226.030 C 247.358 224.872,248.263 224.995,248.971 226.300 C 249.299 226.905,249.575 227.215,249.584 226.989 C 249.649 225.309,247.509 224.275,246.782 225.634 M262.184 225.227 C 262.039 225.461,262.028 225.761,262.160 225.893 C 262.292 226.025,262.400 225.923,262.400 225.667 C 262.400 224.884,263.129 225.147,263.410 226.030 C 263.554 226.487,263.761 226.772,263.869 226.664 C 264.147 226.386,263.245 224.800,262.810 224.800 C 262.610 224.800,262.329 224.992,262.184 225.227 M272.184 225.227 C 272.039 225.461,272.028 225.761,272.160 225.893 C 272.292 226.025,272.400 225.923,272.400 225.667 C 272.400 224.865,273.533 225.157,273.810 226.030 C 273.954 226.487,274.161 226.772,274.269 226.664 C 274.377 226.557,274.264 226.093,274.018 225.634 C 273.539 224.738,272.613 224.532,272.184 225.227 M282.603 225.195 C 282.459 225.428,282.633 225.485,283.025 225.335 C 283.571 225.126,283.644 225.254,283.427 226.039 C 283.203 226.852,283.230 226.892,283.603 226.297 C 284.051 225.582,283.840 224.800,283.200 224.800 C 283.006 224.800,282.737 224.978,282.603 225.195 M292.801 225.100 C 292.801 225.265,294.584 225.400,296.764 225.400 C 298.943 225.400,300.518 225.268,300.263 225.106 C 299.652 224.718,292.800 224.713,292.801 225.100 M313.599 225.100 C 313.599 225.265,315.759 225.344,318.399 225.276 C 321.589 225.194,323.200 225.295,323.200 225.576 C 323.200 225.840,321.725 226.031,319.300 226.083 L 315.400 226.166 319.170 226.299 C 323.377 226.447,324.093 226.309,323.750 225.415 C 323.499 224.759,313.601 224.451,313.599 225.100 M333.378 225.314 C 332.775 226.885,333.413 239.792,334.100 239.924 C 334.739 240.047,334.800 239.586,334.800 234.653 C 334.800 227.998,334.859 227.960,338.399 232.399 C 339.979 234.379,341.360 236.000,341.470 236.000 C 341.700 236.000,337.944 231.133,336.454 229.500 C 334.589 227.456,334.400 227.870,334.400 234.000 C 334.400 237.467,334.248 239.600,334.000 239.600 C 333.748 239.600,333.600 236.933,333.600 232.400 C 333.600 224.731,333.602 224.721,335.174 226.100 L 336.200 227.000 335.230 225.900 C 334.163 224.689,333.677 224.535,333.378 225.314 M344.480 225.280 C 344.157 225.603,344.000 227.431,344.000 230.880 C 344.000 235.976,343.875 236.452,342.791 235.500 C 342.477 235.225,342.563 235.409,342.981 235.909 C 344.156 237.316,344.367 236.600,344.488 230.792 C 344.572 226.739,344.724 225.425,345.100 225.500 C 345.375 225.555,345.600 225.420,345.600 225.200 C 345.600 224.658,345.064 224.696,344.480 225.280 M360.138 225.106 C 359.884 225.268,360.992 225.400,362.600 225.400 C 364.208 225.400,365.316 225.268,365.062 225.106 C 364.808 224.944,363.700 224.812,362.600 224.812 C 361.500 224.812,360.392 224.944,360.138 225.106 M377.078 225.055 C 376.370 225.763,376.773 240.001,377.500 239.968 C 377.918 239.950,377.999 239.856,377.700 239.735 C 377.326 239.584,377.200 237.726,377.200 232.367 L 377.200 225.200 382.000 225.200 C 387.919 225.200,388.477 225.919,382.700 226.102 L 378.600 226.231 382.929 226.316 C 386.862 226.392,387.246 226.336,387.124 225.700 C 386.985 224.972,377.754 224.379,377.078 225.055 M357.797 226.313 C 356.666 227.280,355.200 229.224,355.201 229.754 C 355.202 229.999,355.537 229.652,355.945 228.983 C 356.353 228.314,357.267 227.279,357.974 226.683 C 358.682 226.087,359.113 225.606,358.931 225.613 C 358.749 225.621,358.238 225.936,357.797 226.313 M366.718 226.227 C 367.587 226.837,367.581 227.883,366.711 227.345 C 366.445 227.181,366.392 227.263,366.574 227.558 C 366.804 227.930,367.001 227.931,367.446 227.562 C 368.066 227.047,367.183 225.600,366.249 225.600 C 366.014 225.600,366.225 225.882,366.718 226.227 M295.907 226.290 C 296.626 226.379,297.706 226.377,298.307 226.286 C 298.908 226.195,298.320 226.122,297.000 226.124 C 295.680 226.126,295.188 226.201,295.907 226.290 M345.600 232.800 C 345.600 239.969,345.506 240.294,343.831 238.915 C 343.065 238.283,343.068 238.303,343.867 239.170 C 345.705 241.166,346.000 240.288,346.000 232.813 C 346.000 229.066,345.910 226.000,345.800 226.000 C 345.690 226.000,345.600 229.060,345.600 232.800 M361.905 226.283 C 362.402 226.379,363.122 226.375,363.505 226.275 C 363.887 226.175,363.480 226.096,362.600 226.101 C 361.720 226.105,361.407 226.187,361.905 226.283 M294.178 230.200 L 294.200 233.800 297.301 233.827 L 300.403 233.854 297.416 233.710 L 294.430 233.567 294.292 230.083 L 294.155 226.600 294.178 230.200 M301.400 227.318 C 302.408 228.163,302.600 228.613,302.600 230.134 C 302.600 231.330,302.715 231.738,302.938 231.339 C 303.718 229.946,302.631 227.547,300.800 226.617 C 300.470 226.449,300.740 226.765,301.400 227.318 M314.973 229.200 L 315.000 231.800 318.587 231.917 C 320.809 231.989,322.304 232.217,322.517 232.517 C 322.762 232.860,322.814 232.827,322.698 232.400 C 322.572 231.934,321.722 231.774,318.886 231.685 L 315.236 231.570 315.091 229.085 L 314.945 226.600 314.973 229.200 M357.923 227.900 C 357.218 228.721,356.690 229.600,356.901 229.600 C 356.983 229.600,357.449 229.060,357.937 228.400 C 358.901 227.096,358.892 226.772,357.923 227.900 M272.480 228.080 C 271.715 228.845,271.924 229.254,272.800 228.707 C 273.608 228.202,273.869 227.600,273.280 227.600 C 273.104 227.600,272.744 227.816,272.480 228.080 M304.101 230.200 C 304.105 231.080,304.187 231.393,304.283 230.895 C 304.379 230.398,304.375 229.678,304.275 229.295 C 304.175 228.913,304.096 229.320,304.101 230.200 M356.243 230.633 C 355.928 231.454,355.979 233.605,356.336 234.507 C 356.490 234.896,356.612 234.042,356.608 232.608 C 356.599 229.748,356.594 229.718,356.243 230.633 M354.920 232.400 C 354.920 233.610,354.995 234.105,355.087 233.500 C 355.178 232.895,355.178 231.905,355.087 231.300 C 354.995 230.695,354.920 231.190,354.920 232.400 M378.399 231.700 C 378.400 231.865,380.020 232.000,382.000 232.000 C 384.133 232.000,385.600 232.163,385.600 232.400 C 385.600 232.620,385.795 232.800,386.033 232.800 C 386.272 232.800,386.392 232.575,386.302 232.300 C 386.121 231.751,378.397 231.165,378.399 231.700 M302.834 233.353 L 301.869 234.600 303.013 233.512 C 303.643 232.914,304.077 232.353,303.979 232.265 C 303.880 232.177,303.365 232.667,302.834 233.353 M38.800 232.698 C 143.055 232.970,215.906 232.971,215.738 232.700 C 215.636 232.535,167.008 232.444,107.676 232.498 C 48.344 232.552,17.350 232.642,38.800 232.698 M314.966 233.345 C 314.851 233.644,314.812 234.949,314.878 236.245 L 315.000 238.600 319.273 238.713 C 322.634 238.802,323.586 238.953,323.733 239.421 C 323.856 239.815,323.897 239.777,323.855 239.308 C 323.798 238.686,323.266 238.586,319.495 238.486 L 315.200 238.373 315.200 235.802 L 315.200 233.231 318.700 233.098 L 322.200 232.965 318.687 232.882 C 316.034 232.820,315.124 232.933,314.966 233.345 M380.112 233.095 C 381.164 233.177,382.784 233.176,383.712 233.092 C 384.640 233.008,383.780 232.941,381.800 232.942 C 379.820 232.943,379.060 233.012,380.112 233.095 M244.406 234.100 C 244.401 234.720,244.801 234.791,247.900 234.720 L 251.400 234.639 248.212 234.501 C 246.304 234.419,244.902 234.170,244.718 233.882 C 244.510 233.553,244.410 233.623,244.406 234.100 M252.834 234.600 C 252.834 234.820,253.178 235.630,253.600 236.400 C 254.022 237.170,254.366 237.620,254.366 237.400 C 254.366 237.180,254.022 236.370,253.600 235.600 C 253.178 234.830,252.834 234.380,252.834 234.600 M301.246 235.051 C 301.221 235.519,301.515 236.149,301.900 236.451 C 302.509 236.928,302.540 236.922,302.143 236.400 C 301.892 236.070,301.598 235.440,301.489 235.000 C 301.303 234.240,301.290 234.243,301.246 235.051 M294.072 237.271 C 294.015 239.059,293.851 239.580,293.300 239.724 C 292.644 239.896,292.645 239.910,293.313 239.954 C 294.250 240.015,294.480 239.312,294.296 236.949 L 294.144 235.000 294.072 237.271 M300.243 236.327 C 300.659 237.057,301.348 237.957,301.774 238.327 C 302.224 238.718,302.066 238.331,301.396 237.400 C 299.793 235.174,299.350 234.761,300.243 236.327 M355.203 235.362 C 355.198 235.993,357.196 238.371,358.116 238.830 C 358.788 239.165,358.734 239.047,357.888 238.336 C 357.276 237.821,356.423 236.860,355.991 236.200 C 355.559 235.540,355.204 235.163,355.203 235.362 M246.100 235.894 C 247.145 235.976,248.855 235.976,249.900 235.894 C 250.945 235.812,250.090 235.744,248.000 235.744 C 245.910 235.744,245.055 235.812,246.100 235.894 M267.867 236.467 C 267.463 236.907,267.240 237.374,267.371 237.504 C 267.613 237.747,268.764 236.443,268.787 235.900 C 268.805 235.489,268.709 235.547,267.867 236.467 M278.267 236.467 C 277.863 236.907,277.640 237.374,277.771 237.504 C 278.013 237.747,279.164 236.443,279.187 235.900 C 279.205 235.489,279.109 235.547,278.267 236.467 M357.601 236.537 C 358.151 237.162,358.960 237.859,359.400 238.086 C 360.242 238.520,360.218 238.493,358.001 236.597 L 356.603 235.400 357.601 236.537 M242.849 237.052 C 242.183 238.514,242.474 238.595,243.289 237.174 C 243.660 236.528,243.820 236.000,243.646 236.000 C 243.471 236.000,243.113 236.473,242.849 237.052 M365.792 237.811 C 365.018 238.430,365.020 238.434,365.874 238.022 C 367.314 237.326,367.796 237.519,366.962 238.457 C 366.203 239.310,366.203 239.311,367.101 238.760 C 367.597 238.455,367.942 238.025,367.868 237.803 C 367.645 237.134,366.633 237.138,365.792 237.811 M266.528 238.995 C 266.617 239.865,267.855 240.305,268.473 239.687 C 268.723 239.437,268.509 239.367,267.867 239.489 C 267.143 239.628,266.816 239.479,266.660 238.940 C 266.472 238.291,266.456 238.298,266.528 238.995 M276.800 238.644 C 276.800 239.276,277.697 240.000,278.480 240.000 C 278.876 240.000,279.200 239.826,279.200 239.613 C 279.200 239.399,278.904 239.339,278.542 239.478 C 278.139 239.632,277.674 239.442,277.342 238.989 C 277.044 238.581,276.800 238.425,276.800 238.644 M303.600 238.969 C 304.158 239.685,304.137 239.722,303.299 239.507 C 302.804 239.379,302.500 239.438,302.623 239.637 C 302.910 240.102,303.887 240.107,304.172 239.645 C 304.293 239.450,304.078 239.045,303.696 238.745 C 303.053 238.242,303.046 238.259,303.600 238.969 M361.507 238.690 C 362.226 238.779,363.306 238.777,363.907 238.686 C 364.508 238.595,363.920 238.522,362.600 238.524 C 361.280 238.526,360.788 238.601,361.507 238.690 M382.600 238.779 C 385.955 238.948,386.974 239.126,386.890 239.530 C 386.830 239.821,386.973 239.940,387.210 239.794 C 388.575 238.950,386.592 238.402,382.451 238.479 L 378.200 238.558 382.600 238.779 M242.000 239.180 C 242.000 239.496,241.693 239.613,241.199 239.484 C 240.759 239.369,240.500 239.438,240.623 239.637 C 240.746 239.837,241.096 240.000,241.400 240.000 C 242.033 240.000,242.598 239.265,242.240 238.907 C 242.108 238.775,242.000 238.898,242.000 239.180 M107.800 241.600 L -0.200 241.802 107.900 241.901 C 179.766 241.967,216.000 241.866,216.000 241.600 C 216.000 241.380,215.955 241.245,215.900 241.299 C 215.845 241.353,167.200 241.489,107.800 241.600 " stroke="none" fill="#949494" fill-rule="evenodd"></path><path id="path4" d="M55.530 121.291 C 55.601 124.601,55.553 127.735,55.422 128.255 L 55.185 129.200 46.216 129.200 C 41.283 129.200,37.164 129.335,37.061 129.500 C 36.628 130.200,54.973 129.617,55.500 128.914 C 56.052 128.178,56.223 116.571,55.694 115.736 C 55.532 115.481,55.458 117.981,55.530 121.291 M185.067 115.467 C 184.696 115.837,184.729 176.309,185.100 176.538 C 185.265 176.640,185.400 162.881,185.400 145.962 C 185.400 129.043,185.385 115.200,185.367 115.200 C 185.348 115.200,185.213 115.320,185.067 115.467 M201.600 117.600 C 202.744 118.920,203.769 120.000,203.879 120.000 C 203.989 120.000,203.144 118.920,202.000 117.600 C 200.856 116.280,199.831 115.200,199.721 115.200 C 199.611 115.200,200.456 116.280,201.600 117.600 M226.400 130.800 C 226.400 139.380,226.284 146.400,226.142 146.400 C 226.001 146.400,225.268 145.725,224.513 144.900 L 223.142 143.400 224.445 145.109 C 225.162 146.048,225.940 146.754,226.174 146.676 C 226.668 146.511,227.191 115.199,226.700 115.200 C 226.535 115.200,226.400 122.220,226.400 130.800 M263.467 115.467 C 263.096 115.837,263.129 176.309,263.500 176.538 C 263.665 176.640,263.800 162.881,263.800 145.962 C 263.800 129.043,263.785 115.200,263.767 115.200 C 263.748 115.200,263.613 115.320,263.467 115.467 M297.233 115.349 C 297.325 115.431,298.300 115.601,299.400 115.728 C 300.749 115.884,301.074 115.849,300.400 115.620 C 299.401 115.280,296.918 115.068,297.233 115.349 M69.390 146.200 C 69.390 163.140,69.440 170.012,69.500 161.470 C 69.560 152.929,69.560 139.069,69.500 130.670 C 69.440 122.272,69.390 129.260,69.390 146.200 M128.190 146.000 C 128.190 162.830,128.240 169.715,128.300 161.300 C 128.360 152.885,128.360 139.115,128.300 130.700 C 128.240 122.285,128.190 129.170,128.190 146.000 M147.790 146.200 C 147.790 163.140,147.840 170.012,147.900 161.470 C 147.960 152.929,147.960 139.069,147.900 130.670 C 147.840 122.272,147.790 129.260,147.790 146.200 M343.790 146.200 C 343.790 163.140,343.840 170.012,343.900 161.470 C 343.960 152.929,343.960 139.069,343.900 130.670 C 343.840 122.272,343.790 129.260,343.790 146.200 M205.640 122.400 C 206.587 123.610,207.415 124.675,207.481 124.767 C 207.546 124.858,207.596 124.768,207.592 124.567 C 207.587 124.365,206.759 123.300,205.751 122.200 L 203.919 120.200 205.640 122.400 M319.000 124.800 C 319.859 125.680,320.652 126.400,320.762 126.400 C 320.872 126.400,320.259 125.680,319.400 124.800 C 318.541 123.920,317.748 123.200,317.638 123.200 C 317.528 123.200,318.141 123.920,319.000 124.800 M322.028 128.600 C 323.685 131.149,324.412 131.891,323.204 129.800 C 322.695 128.920,321.930 127.840,321.504 127.400 C 321.077 126.960,321.313 127.500,322.028 128.600 M210.434 128.247 C 210.965 128.933,211.480 129.423,211.579 129.335 C 211.677 129.247,211.243 128.686,210.613 128.088 L 209.469 127.000 210.434 128.247 M0.261 129.300 C 0.364 129.465,4.575 129.600,9.620 129.600 L 18.794 129.600 18.900 153.100 L 19.007 176.600 19.103 153.087 C 19.179 134.569,19.094 129.537,18.700 129.397 C 17.815 129.083,0.068 128.989,0.261 129.300 M281.695 129.533 C 281.300 129.784,281.214 133.393,281.295 146.226 L 281.400 162.600 288.200 162.614 L 295.000 162.628 288.296 162.505 L 281.591 162.381 281.696 146.091 L 281.800 129.800 287.800 129.584 L 293.800 129.367 288.000 129.290 C 284.810 129.247,281.973 129.356,281.695 129.533 M215.199 133.999 C 216.119 135.098,217.081 136.126,217.336 136.283 C 217.591 136.439,216.923 135.540,215.851 134.284 C 214.780 133.028,213.818 132.000,213.714 132.000 C 213.610 132.000,214.279 132.899,215.199 133.999 M304.800 134.200 C 305.546 134.970,306.247 135.600,306.357 135.600 C 306.467 135.600,305.946 134.970,305.200 134.200 C 304.454 133.430,303.753 132.800,303.643 132.800 C 303.533 132.800,304.054 133.430,304.800 134.200 M306.760 136.600 C 307.434 137.905,307.988 138.628,307.985 138.200 C 307.983 137.980,307.614 137.350,307.164 136.800 C 306.621 136.136,306.485 136.069,306.760 136.600 M92.900 138.299 C 96.145 138.366,101.455 138.366,104.700 138.299 C 107.945 138.232,105.290 138.177,98.800 138.177 C 92.310 138.177,89.655 138.232,92.900 138.299 M326.468 138.800 C 326.488 139.839,327.118 141.546,327.132 140.600 C 327.138 140.160,326.989 139.440,326.800 139.000 C 326.589 138.510,326.461 138.432,326.468 138.800 M220.949 140.916 C 222.020 142.172,222.982 143.200,223.086 143.200 C 223.354 143.200,220.023 139.261,219.464 138.917 C 219.209 138.761,219.877 139.660,220.949 140.916 M309.000 146.000 C 309.000 148.446,309.117 150.032,309.260 149.524 C 309.403 149.016,309.520 147.430,309.520 146.000 C 309.520 144.570,309.403 142.984,309.260 142.476 C 309.117 141.968,309.000 143.554,309.000 146.000 M202.488 160.700 C 202.537 169.445,202.626 174.080,202.687 171.000 C 202.967 156.764,202.973 144.799,202.700 144.800 C 202.535 144.800,202.440 151.955,202.488 160.700 M203.608 145.833 C 203.613 146.035,204.441 147.100,205.449 148.200 L 207.281 150.200 205.560 148.000 C 204.613 146.790,203.785 145.725,203.719 145.633 C 203.654 145.542,203.604 145.632,203.608 145.833 M208.736 152.317 C 209.691 153.461,210.681 154.525,210.936 154.680 C 211.191 154.836,210.619 154.027,209.664 152.883 C 208.709 151.739,207.719 150.675,207.464 150.520 C 207.209 150.364,207.781 151.173,208.736 152.317 M326.622 152.222 C 326.472 153.025,326.428 153.762,326.526 153.860 C 326.624 153.957,326.827 153.381,326.978 152.578 C 327.128 151.775,327.172 151.038,327.074 150.940 C 326.976 150.843,326.773 151.419,326.622 152.222 M92.900 153.099 C 96.145 153.166,101.455 153.166,104.700 153.099 C 107.945 153.032,105.290 152.977,98.800 152.977 C 92.310 152.977,89.655 153.032,92.900 153.099 M212.799 157.199 C 213.719 158.298,214.681 159.326,214.936 159.483 C 215.191 159.639,214.523 158.740,213.451 157.484 C 212.380 156.228,211.418 155.200,211.314 155.200 C 211.210 155.200,211.879 156.099,212.799 157.199 M304.000 158.482 C 302.790 159.611,302.160 160.338,302.600 160.099 C 303.369 159.680,306.753 156.384,306.381 156.415 C 306.282 156.424,305.210 157.354,304.000 158.482 M297.200 162.000 C 296.376 162.264,296.341 162.326,297.000 162.354 C 297.440 162.373,298.070 162.213,298.400 162.000 C 299.101 161.547,298.614 161.547,297.200 162.000 M218.549 164.116 C 219.620 165.372,220.582 166.400,220.686 166.400 C 220.954 166.400,217.623 162.461,217.064 162.117 C 216.809 161.961,217.477 162.860,218.549 164.116 M319.428 166.707 C 317.903 168.408,317.423 169.080,318.362 168.200 C 319.932 166.727,322.645 163.590,322.334 163.607 C 322.260 163.611,320.952 165.006,319.428 166.707 M222.808 169.033 C 222.813 169.235,223.641 170.300,224.649 171.400 L 226.481 173.400 224.760 171.200 C 223.813 169.990,222.985 168.925,222.919 168.833 C 222.854 168.742,222.804 168.832,222.808 169.033 M314.881 170.572 C 313.023 171.885,312.762 172.261,314.331 171.362 C 315.063 170.943,315.850 170.375,316.080 170.100 C 316.671 169.393,316.393 169.502,314.881 170.572 M227.422 174.900 C 228.067 175.615,228.752 176.380,228.946 176.600 C 229.139 176.820,229.099 176.640,228.856 176.200 C 228.235 175.077,226.931 173.600,226.561 173.600 C 226.390 173.600,226.778 174.185,227.422 174.900 M299.600 176.400 C 298.808 176.654,298.767 176.720,299.400 176.720 C 299.840 176.720,300.650 176.576,301.200 176.400 C 301.992 176.146,302.033 176.080,301.400 176.080 C 300.960 176.080,300.150 176.224,299.600 176.400 M23.722 177.099 C 26.099 177.170,29.879 177.169,32.122 177.098 C 34.365 177.027,32.420 176.969,27.800 176.969 C 23.180 176.970,21.345 177.028,23.722 177.099 M73.900 177.098 C 76.155 177.170,79.845 177.170,82.100 177.098 C 84.355 177.027,82.510 176.969,78.000 176.969 C 73.490 176.969,71.645 177.027,73.900 177.098 M115.500 177.098 C 117.755 177.170,121.445 177.170,123.700 177.098 C 125.955 177.027,124.110 176.969,119.600 176.969 C 115.090 176.969,113.245 177.027,115.500 177.098 M152.300 177.098 C 154.555 177.170,158.245 177.170,160.500 177.098 C 162.755 177.027,160.910 176.969,156.400 176.969 C 151.890 176.969,150.045 177.027,152.300 177.098 M189.900 177.098 C 192.155 177.170,195.845 177.170,198.100 177.098 C 200.355 177.027,198.510 176.969,194.000 176.969 C 189.490 176.969,187.645 177.027,189.900 177.098 M233.320 177.098 C 235.255 177.172,238.315 177.171,240.120 177.097 C 241.924 177.023,240.340 176.963,236.600 176.964 C 232.860 176.964,231.384 177.025,233.320 177.098 M271.874 177.099 C 276.094 177.164,283.114 177.164,287.474 177.100 C 291.833 177.035,288.380 176.982,279.800 176.982 C 271.220 176.982,267.653 177.035,271.874 177.099 M348.300 177.098 C 350.555 177.170,354.245 177.170,356.500 177.098 C 358.755 177.027,356.910 176.969,352.400 176.969 C 347.890 176.969,346.045 177.027,348.300 177.098 M224.567 232.400 C 224.567 236.690,224.626 238.445,224.698 236.300 C 224.770 234.155,224.770 230.645,224.698 228.500 C 224.626 226.355,224.567 228.110,224.567 232.400 M246.181 226.037 C 245.829 226.718,245.612 227.345,245.699 227.432 C 245.786 227.519,246.156 226.962,246.522 226.195 C 247.344 224.470,247.059 224.338,246.181 226.037 M292.567 232.400 C 292.567 236.690,292.626 238.445,292.698 236.300 C 292.770 234.155,292.770 230.645,292.698 228.500 C 292.626 226.355,292.567 228.110,292.567 232.400 M301.188 225.433 C 301.952 225.765,302.938 226.342,303.381 226.718 C 304.148 227.368,304.160 227.366,303.622 226.674 C 302.984 225.851,301.101 224.792,300.320 224.816 C 300.034 224.824,300.425 225.102,301.188 225.433 M313.367 232.400 C 313.367 236.690,313.426 238.445,313.498 236.300 C 313.570 234.155,313.570 230.645,313.498 228.500 C 313.426 226.355,313.367 228.110,313.367 232.400 M332.978 225.313 C 332.869 225.596,332.831 229.061,332.892 233.013 L 333.002 240.200 333.201 232.500 C 333.396 224.946,333.375 224.277,332.978 225.313 M345.800 232.399 C 345.800 236.537,345.935 239.840,346.100 239.738 C 346.487 239.499,346.482 225.948,346.094 225.337 C 345.932 225.083,345.800 228.261,345.800 232.399 M376.565 232.800 C 376.565 236.650,376.625 238.225,376.698 236.300 C 376.771 234.375,376.771 231.225,376.698 229.300 C 376.625 227.375,376.565 228.950,376.565 232.800 M294.800 226.624 C 296.184 226.928,300.743 227.011,300.292 226.725 C 300.021 226.553,298.540 226.430,297.000 226.453 C 295.460 226.475,294.470 226.552,294.800 226.624 M317.113 226.695 C 318.276 226.776,320.076 226.776,321.113 226.693 C 322.151 226.611,321.200 226.545,319.000 226.546 C 316.800 226.547,315.951 226.614,317.113 226.695 M356.000 227.600 C 355.530 228.260,355.236 228.800,355.346 228.800 C 355.456 228.800,355.930 228.260,356.400 227.600 C 356.870 226.940,357.164 226.400,357.054 226.400 C 356.944 226.400,356.470 226.940,356.000 227.600 M378.564 226.951 C 378.447 227.254,378.408 228.379,378.476 229.451 L 378.600 231.400 382.463 231.600 C 384.588 231.710,386.242 231.665,386.140 231.500 C 386.037 231.335,384.343 231.200,382.376 231.200 L 378.800 231.200 378.800 229.015 L 378.800 226.830 382.500 226.698 L 386.200 226.566 382.487 226.483 C 379.645 226.419,378.725 226.529,378.564 226.951 M247.200 228.024 C 247.200 228.257,247.369 228.343,247.575 228.215 C 247.782 228.088,248.136 228.302,248.363 228.692 C 248.590 229.081,248.781 229.211,248.788 228.980 C 248.802 228.490,247.985 227.600,247.520 227.600 C 247.344 227.600,247.200 227.791,247.200 228.024 M304.464 229.867 C 304.429 230.564,304.296 231.464,304.170 231.867 C 303.953 232.559,303.965 232.560,304.394 231.891 C 304.645 231.502,304.777 230.602,304.689 229.891 L 304.528 228.600 304.464 229.867 M334.992 229.700 C 334.869 230.195,334.827 232.760,334.898 235.400 L 335.028 240.200 335.114 234.900 C 335.200 229.622,335.327 229.150,336.409 230.100 C 336.723 230.375,336.641 230.195,336.227 229.700 C 335.814 229.205,335.417 228.800,335.346 228.800 C 335.274 228.800,335.115 229.205,334.992 229.700 M354.600 230.400 C 354.448 231.091,354.407 231.741,354.509 231.842 C 354.611 231.944,354.809 231.453,354.950 230.750 C 355.091 230.047,355.131 229.398,355.041 229.308 C 354.950 229.217,354.752 229.709,354.600 230.400 M315.461 231.300 C 315.563 231.465,317.156 231.600,319.000 231.600 C 321.028 231.600,322.461 231.776,322.628 232.045 C 323.118 232.839,321.866 233.188,318.500 233.194 C 316.685 233.197,315.200 233.335,315.199 233.500 C 315.197 234.163,322.500 233.427,322.944 232.719 C 323.179 232.345,323.229 231.895,323.054 231.719 C 322.647 231.310,315.212 230.900,315.461 231.300 M356.501 232.600 C 356.505 233.480,356.587 233.793,356.683 233.295 C 356.779 232.798,356.775 232.078,356.675 231.695 C 356.575 231.313,356.496 231.720,356.501 232.600 M301.563 232.245 C 301.269 232.599,300.662 233.038,300.214 233.219 C 299.640 233.452,299.586 233.557,300.030 233.575 C 300.377 233.589,301.083 233.150,301.600 232.600 C 302.117 232.050,302.440 231.600,302.319 231.600 C 302.197 231.600,301.857 231.890,301.563 232.245 M341.618 233.700 C 342.541 234.965,343.438 236.000,343.612 236.000 C 343.786 236.000,343.509 235.505,342.997 234.900 C 340.538 231.994,340.087 231.602,341.618 233.700 M107.800 232.399 L 215.800 232.600 216.020 237.200 L 216.240 241.800 216.320 237.533 C 216.364 235.186,216.291 232.981,216.157 232.633 C 215.937 232.058,206.080 232.009,107.857 232.099 L -0.200 232.198 107.800 232.399 M340.151 235.000 C 341.150 236.320,342.530 238.030,343.216 238.800 C 343.903 239.570,343.648 239.120,342.649 237.800 C 341.650 236.480,340.270 234.770,339.584 234.000 C 338.897 233.230,339.152 233.680,340.151 235.000 M382.200 233.176 L 378.600 233.400 378.481 235.900 C 378.415 237.275,378.505 238.400,378.681 238.401 C 378.856 238.401,378.939 237.321,378.864 236.001 L 378.729 233.600 382.064 233.594 C 383.899 233.591,385.670 233.413,386.000 233.200 C 386.330 232.987,386.420 232.844,386.200 232.882 C 385.980 232.920,384.180 233.052,382.200 233.176 M357.114 235.404 C 357.341 235.847,357.948 236.566,358.463 237.002 C 359.367 237.766,359.365 237.752,358.406 236.597 C 356.813 234.679,356.679 234.555,357.114 235.404 M294.399 235.500 C 294.399 235.665,295.482 235.739,296.806 235.664 C 298.923 235.545,299.312 235.641,300.031 236.464 L 300.847 237.400 300.178 236.300 C 299.526 235.229,294.402 234.520,294.399 235.500 M301.600 235.448 C 301.600 235.658,302.153 236.453,302.829 237.215 L 304.058 238.600 302.945 237.000 C 302.333 236.120,301.780 235.325,301.716 235.233 C 301.652 235.142,301.600 235.238,301.600 235.448 M243.680 236.480 C 243.416 236.744,243.205 237.149,243.212 237.380 C 243.219 237.611,243.408 237.485,243.632 237.100 C 244.302 235.950,251.839 236.064,252.210 237.230 C 252.354 237.687,252.561 237.972,252.669 237.864 C 252.777 237.757,252.664 237.293,252.418 236.834 C 251.890 235.847,244.608 235.552,243.680 236.480 M355.510 236.628 C 356.064 237.655,357.565 238.992,358.800 239.558 C 359.663 239.953,359.690 239.947,359.000 239.508 C 358.560 239.229,357.501 238.292,356.647 237.428 C 355.793 236.563,355.282 236.203,355.510 236.628 M301.600 238.800 C 302.070 239.460,302.544 240.000,302.654 240.000 C 302.764 240.000,302.470 239.460,302.000 238.800 C 301.530 238.140,301.056 237.600,300.946 237.600 C 300.836 237.600,301.130 238.140,301.600 238.800 M366.200 239.227 C 365.540 239.650,365.205 239.997,365.456 239.998 C 365.706 239.999,366.336 239.646,366.856 239.213 C 368.045 238.223,367.759 238.229,366.200 239.227 M387.309 239.191 C 387.343 239.636,387.512 240.000,387.685 240.000 C 388.127 240.000,388.079 238.896,387.624 238.615 C 387.418 238.487,387.276 238.747,387.309 239.191 M227.300 240.296 C 228.565 240.375,230.635 240.375,231.900 240.296 C 233.165 240.216,232.130 240.151,229.600 240.151 C 227.070 240.151,226.035 240.216,227.300 240.296 M316.300 240.296 C 317.675 240.374,319.925 240.374,321.300 240.296 C 322.675 240.218,321.550 240.154,318.800 240.154 C 316.050 240.154,314.925 240.218,316.300 240.296 M361.705 240.287 C 362.314 240.379,363.214 240.377,363.705 240.282 C 364.197 240.187,363.700 240.111,362.600 240.114 C 361.500 240.117,361.097 240.195,361.705 240.287 M379.500 240.296 C 380.875 240.374,383.125 240.374,384.500 240.296 C 385.875 240.218,384.750 240.154,382.000 240.154 C 379.250 240.154,378.125 240.218,379.500 240.296 M53.900 242.300 C 83.655 242.357,132.345 242.357,162.100 242.300 C 191.855 242.243,167.510 242.197,108.000 242.197 C 48.490 242.197,24.145 242.243,53.900 242.300 " stroke="none" fill="#848484" fill-rule="evenodd"></path></g></svg>